<svg id="HireWorks_Logo_Header" xmlns="http://www.w3.org/2000/svg" xmlns:xlink="http://www.w3.org/1999/xlink" width="229.325" height="56.146" viewBox="0 0 229.325 56.146">
  <defs>
    <clipPath id="clip-path">
      <path id="Pfad_4" data-name="Pfad 4" d="M0,28.107H229.325V-27.729H0Z" transform="translate(0 27.729)"/>
    </clipPath>
    <clipPath id="clip-path-2">
      <path id="Pfad_6" data-name="Pfad 6" d="M28.073-174.931A28.1,28.1,0,0,0,0-146.859H0a28.1,28.1,0,0,0,28.073,28.073h0a28.1,28.1,0,0,0,28.073-28.073h0l0-28.072Zm19.606,2.621h5.845v5.842H47.666Zm-8.46,0h5.838l-.013,5.844-5.825,0Zm-36.6,25.451A25.48,25.48,0,0,1,28.073-172.31H36.6v5.846l-8.525,0a19.571,19.571,0,0,0-19.55,19.549h0a19.572,19.572,0,0,0,19.55,19.55h0a19.571,19.571,0,0,0,19.55-19.547h0l.019-8.473h5.883v8.525a25.48,25.48,0,0,1-25.451,25.452h0A25.48,25.48,0,0,1,2.621-146.859M47.66-163.845h5.864V-158H47.647Zm-8.441,0h5.819L45.026-158H39.22Zm-28.075,16.93a16.947,16.947,0,0,1,16.928-16.928h0l8.525,0V-158H28.073a11.159,11.159,0,0,0-11.147,11.146h0a11.159,11.159,0,0,0,11.147,11.147h0A11.159,11.159,0,0,0,39.22-146.859h0v-8.525h5.8L45-146.913a16.947,16.947,0,0,1-16.928,16.928h0a16.947,16.947,0,0,1-16.928-16.928m8.4.055a8.535,8.535,0,0,1,8.525-8.525H36.6v8.525a8.534,8.534,0,0,1-8.525,8.525h0a8.535,8.535,0,0,1-8.525-8.525" transform="translate(0 174.931)"/>
    </clipPath>
  </defs>
  <g id="Gruppe_7" data-name="Gruppe 7" transform="translate(0 0)" clip-path="url(#clip-path)">
    <g id="Gruppe_5" data-name="Gruppe 5" transform="translate(-0.001 0.001)">
      <path id="Pfad_2" data-name="Pfad 2" d="M28.107,14.053l0-27.917H.19a27.918,27.918,0,1,0,0,55.836A27.949,27.949,0,0,0,28.107,14.053M8.667-11.258v5.813l-8.477,0a19.442,19.442,0,0,0,0,38.883A19.463,19.463,0,0,0,19.632,14l.018-8.425H25.5v8.477A25.339,25.339,0,0,1,.19,39.364a25.311,25.311,0,0,1,0-50.623ZM17.048,2.968H11.275V-2.837l5.787,0ZM11.275,14.053V5.576h5.767L17.024,14A16.852,16.852,0,0,1,.19,30.833a16.834,16.834,0,1,1,0-33.668l8.477,0V2.968H.19a11.085,11.085,0,0,0,0,22.17A11.1,11.1,0,0,0,11.275,14.053M.19,22.53a8.477,8.477,0,1,1,0-16.955H8.667v8.477A8.487,8.487,0,0,1,.19,22.53M25.5,2.968H19.656l.012-5.807,5.831,0ZM11.275-11.258H17.08l-.012,5.811-5.793,0Zm14.224,0v5.809l-5.825,0,.014-5.811Z" transform="translate(27.729 13.864)"/>
    </g>
    <g id="Gruppe_6" data-name="Gruppe 6" transform="translate(72.389 10.089)">
      <path id="Pfad_3" data-name="Pfad 3" d="M74.371,6.968a2.586,2.586,0,0,1-.29-1.484,2.182,2.182,0,0,1,1.512-2.012A3.651,3.651,0,0,1,77.78,3.39a2.277,2.277,0,0,1,1.341.916,3.654,3.654,0,0,1,.61,1.571c.036.217.054.437.083.662h3.248c0-.141.006-.258,0-.375a6.811,6.811,0,0,0-.507-2.382,5.224,5.224,0,0,0-1.516-2.074A5.1,5.1,0,0,0,78.929.73,8.945,8.945,0,0,0,75.569.621,6.243,6.243,0,0,0,72.482,1.95,4.849,4.849,0,0,0,70.79,4.663a6.14,6.14,0,0,0-.032,2.555A4.891,4.891,0,0,0,73.044,10.6a9.987,9.987,0,0,0,2.3,1.047c.777.248,1.565.465,2.342.711a4.745,4.745,0,0,1,1.549.824,2.078,2.078,0,0,1,.713,1.023,3.623,3.623,0,0,1,.131,1.5,2.348,2.348,0,0,1-.4,1.1,2.884,2.884,0,0,1-1.786,1.12,4.527,4.527,0,0,1-1.734.04,2.808,2.808,0,0,1-2-1.244,3.468,3.468,0,0,1-.526-1.6c-.026-.232-.038-.465-.056-.695-.268-.042-3.258-.03-3.417.018v.177a8.784,8.784,0,0,0,.157,1.671,5.429,5.429,0,0,0,1.4,2.8,5.534,5.534,0,0,0,2.434,1.446,9.038,9.038,0,0,0,2.626.342,8.758,8.758,0,0,0,3.053-.5,5.7,5.7,0,0,0,2.114-1.319,5.407,5.407,0,0,0,1.611-3.633,7.96,7.96,0,0,0-.165-2.227,4.413,4.413,0,0,0-1.325-2.348,7.837,7.837,0,0,0-2.432-1.48,18.683,18.683,0,0,0-2.3-.713A9.383,9.383,0,0,1,75.5,8.005a2.542,2.542,0,0,1-1.128-1.037M69.246,20.651c-2.827-3.564-5.634-7.1-8.445-10.64L68.962.738c-.127,0-3.872.01-4.094,0a.327.327,0,0,0-.316.149.465.465,0,0,1-.04.048q-3.483,4.014-6.967,8.026c-.042.05-.091.095-.173.179,0-.63,0-15.11,0-15.692h-3.51a.331.331,0,0,0-.02.066q0,13.5,0,26.993c0,.04.006.083.01.123,0,.006.008.01.012.016a.041.041,0,0,1,.01.01h3.506V11.392l.038-.018c.056.066.113.133.165.2q3.6,4.47,7.2,8.943a.334.334,0,0,0,.29.155c1.335-.006,2.672,0,4.007,0,.044,0,.089-.008.169-.016M49.13,4.355c.453-.04,1.514-.052,1.585-.054V.708c-.052,0-.093-.01-.133-.01a8.01,8.01,0,0,0-1.488.123,4.2,4.2,0,0,0-2.7,1.708.7.7,0,0,1-.095.091c-.014-.64.01-1.254-.014-1.873h-3.5a.34.34,0,0,0-.02.072c0,6.56,0,19.766.006,19.806a.049.049,0,0,0,.012.016l.012.012h3.5c0-.1,0-12.613.008-12.779a5.189,5.189,0,0,1,.282-1.587A2.958,2.958,0,0,1,47.4,5.031a2.962,2.962,0,0,1,1.73-.677M38.355,15.82a10.641,10.641,0,0,0,1.252-5.26,10.382,10.382,0,0,0-.238-2.277,10.03,10.03,0,0,0-2.459-4.774A9.5,9.5,0,0,0,32.827.939,10.758,10.758,0,0,0,30.145.432a11.725,11.725,0,0,0-2.63.111A10.2,10.2,0,0,0,24.34,1.594,9.512,9.512,0,0,0,20.9,4.62a10.079,10.079,0,0,0-1.772,4.75,11.94,11.94,0,0,0,.246,4.124,9.9,9.9,0,0,0,1.861,3.858,9.432,9.432,0,0,0,5.092,3.278,11.447,11.447,0,0,0,2.169.342,11.771,11.771,0,0,0,2.648-.121,10.256,10.256,0,0,0,3.228-1.093,9.53,9.53,0,0,0,3.987-3.939m-2.326-4.97a7.289,7.289,0,0,1-.411,2.513,6.207,6.207,0,0,1-4.654,4.249,6.785,6.785,0,0,1-5-.679,6.147,6.147,0,0,1-2.1-1.967,7,7,0,0,1-1.114-2.793,9,9,0,0,1-.026-2.751,7.158,7.158,0,0,1,.912-2.67A6.132,6.132,0,0,1,26.7,4.1a6.793,6.793,0,0,1,3.83-.383,6.363,6.363,0,0,1,4.9,3.923,7.564,7.564,0,0,1,.6,3.212M10.452,20.705,21.039-5.035H17.485L9.209,15.355,5.748,7.109,10.885-5.035H7.359L4.024,3.215.692-5.035H-2.871L2.264,7.111l-3.391,8.236L-9.4-5.035h-3.592L-2.4,20.705h2.33L3.99,10.937l4.1,9.768ZM-12.337,8.4a10.153,10.153,0,0,0-1.291-3.679A8.281,8.281,0,0,0-16.7,1.7,10.119,10.119,0,0,0-21.215.43a10.235,10.235,0,0,0-4.515.691,8.945,8.945,0,0,0-4.283,3.6A10.621,10.621,0,0,0-31.567,9.1a13.083,13.083,0,0,0,.185,4.436A9.53,9.53,0,0,0-29.9,16.988a8.966,8.966,0,0,0,4.382,3.349,10.609,10.609,0,0,0,2.912.624,12.321,12.321,0,0,0,2.855-.1,9.539,9.539,0,0,0,3.443-1.273,9.017,9.017,0,0,0,3.459-3.828c.072-.147.133-.3.2-.459L-15.353,13.9c-.06.1-.113.181-.159.264a9.589,9.589,0,0,1-1.414,1.867,5.566,5.566,0,0,1-3.2,1.7,9.3,9.3,0,0,1-2.255.077,6.554,6.554,0,0,1-2.519-.709,5.569,5.569,0,0,1-2.4-2.477,7.122,7.122,0,0,1-.669-2.3c-.024-.173-.03-.35-.044-.542H-12.27c.024-.189.056-.352.062-.515A14.423,14.423,0,0,0-12.337,8.4m-3.566.489H-27.92c.072-.35.127-.685.209-1.011a6.135,6.135,0,0,1,.94-2.088,5.262,5.262,0,0,1,3.1-2.124,7.31,7.31,0,0,1,2.348-.171,6.514,6.514,0,0,1,1.994.457,5.417,5.417,0,0,1,2.739,2.43A5.888,5.888,0,0,1-15.9,8.69c.006.06,0,.123,0,.2M-33.065,4.322c.046-.232.038-3.447-.008-3.606a7.253,7.253,0,0,0-1.5.091,4.262,4.262,0,0,0-2.662,1.553c-.064.079-.123.161-.183.242l-.04-.01V.758H-41v19.9h3.534V8.315a5.739,5.739,0,0,1,.3-2.062,2.9,2.9,0,0,1,.8-1.216A2.79,2.79,0,0,1-34.8,4.381c.5-.048,1.655-.058,1.732-.058M-44.931-4.534a2.352,2.352,0,0,0-2.382-2.34,2.323,2.323,0,0,0-2.352,2.336,2.367,2.367,0,0,0,2.35,2.356,2.394,2.394,0,0,0,2.384-2.352M-57.4,20.659h3.637V-5.085H-57.4V5.573H-69.731V-5.075c-.312-.046-3.5-.032-3.639.012V20.659h3.643V9.064H-57.4Zm11.83-19.9h-3.488V20.649c.282.042,3.367.028,3.51-.014C-45.5,20.212-45.521.9-45.568.756" transform="translate(73.37 6.874)"/>
    </g>
  </g>
  <g id="Gruppe_11" data-name="Gruppe 11" transform="translate(0 0)">
    <g id="Gruppe_10" data-name="Gruppe 10" clip-path="url(#clip-path-2)">
      <g id="Gruppe_9" data-name="Gruppe 9" transform="translate(84.218 28.073) rotate(135)">
        <path id="Pfad_5" data-name="Pfad 5" d="M39.7,79.4,0,39.7,39.7,0,79.4,39.7Z" transform="translate(0 0)"/>
      </g>
    </g>
  </g>
</svg>
